<svg width="20" height="16" viewBox="0 0 20 16" fill="none" xmlns="http://www.w3.org/2000/svg">
<path d="M2.58333 0.75L17.25 14.9722M11.75 9.84876C11.2635 10.271 10.621 10.5278 9.91667 10.5278C8.39788 10.5278 7.16667 9.33387 7.16667 7.86111C7.16667 7.17813 7.43145 6.55512 7.8669 6.08333M16.8905 11.068C17.4142 10.6258 17.8827 10.181 18.2861 9.76947C19.3491 8.68496 19.3491 7.03726 18.2861 5.95275C16.4933 4.12363 13.4142 1.63889 9.91667 1.63889C9.09957 1.63889 8.30532 1.7745 7.54498 2.00568M4.875 3.2419C3.53798 4.0695 2.39783 5.08492 1.54723 5.95275C0.484257 7.03726 0.484256 8.68496 1.54723 9.76947C3.34003 11.5986 6.41911 14.0833 9.91667 14.0833C11.6291 14.0833 13.2412 13.4877 14.6511 12.665" stroke="#C4C4C4" stroke-width="1.5" stroke-linecap="round"/>
</svg>
